<svg width="18" height="24" viewBox="0 0 18 24" fill="none" xmlns="http://www.w3.org/2000/svg">
<path fill-rule="evenodd" clip-rule="evenodd" d="M13.3164 0.207756C14.7841 0.480851 16.2575 1.15192 16.9712 2.53257C17.7068 3.95639 17.6298 5.34054 17.0184 6.50645C16.4403 7.60817 15.4323 8.43212 14.4186 8.98531C13.3957 9.54317 12.2429 9.8933 11.2326 9.96215C10.7304 9.99717 10.2017 9.96449 9.72012 9.80693C9.2374 9.64821 8.70526 9.3261 8.40989 8.71922C8.27702 8.45062 8.25133 8.14032 8.33818 7.85296C8.42502 7.56561 8.61771 7.32336 8.87608 7.17668C9.13446 7.03 9.4386 6.99021 9.72516 7.06559C10.0117 7.14097 10.2586 7.32571 10.4143 7.58132C10.4181 7.58291 10.422 7.58447 10.4258 7.58599C10.5407 7.62334 10.7557 7.65602 11.0798 7.63267C11.7234 7.58949 12.5601 7.34908 13.3302 6.92893C14.1083 6.50528 14.6979 5.96493 14.9898 5.40823C15.2484 4.9169 15.3139 4.34853 14.9369 3.61794C14.7071 3.17212 14.0887 2.72397 12.9026 2.50339C11.7556 2.28981 10.2994 2.34 8.80525 2.65511C7.31457 2.97022 5.85952 3.53391 4.7056 4.28551C3.54017 5.04411 2.78047 5.92641 2.48854 6.8414C2.17362 7.82991 2.28511 8.52665 2.56899 9.09852C2.88161 9.72524 3.45168 10.3064 4.23897 10.9285C4.62054 11.2296 5.02511 11.5202 5.45151 11.8271L5.4745 11.8435C5.9009 12.1492 6.35144 12.4725 6.77094 12.8098C7.12608 13.0934 7.48697 13.4085 7.81913 13.7633C9.30521 13.4715 10.5925 13.5031 11.6487 13.9932C13.0072 14.6246 13.6876 15.8687 14.0083 17.2762C14.0468 17.4271 14.0551 17.5843 14.0328 17.7385C14.0105 17.8927 13.958 18.0408 13.8784 18.174C13.7988 18.3073 13.6937 18.423 13.5694 18.5144C13.445 18.6058 13.3039 18.6709 13.1544 18.706C13.0048 18.7411 12.8498 18.7454 12.6986 18.7186C12.5474 18.6919 12.403 18.6347 12.2739 18.5504C12.1448 18.4661 12.0337 18.3564 11.947 18.2277C11.8604 18.0991 11.8 17.9541 11.7694 17.8014C11.5395 16.7907 11.1637 16.3355 10.6925 16.1161C10.3477 15.9562 9.83046 15.864 9.06271 15.9352C9.77069 18.4619 8.53401 20.7506 7.0215 22.0472C6.20547 22.7463 5.209 23.2551 4.21023 23.3555C3.16779 23.4617 2.05294 23.1057 1.39782 22.0005C0.820859 21.0237 0.816262 19.985 1.11739 19.0595C1.40702 18.1702 1.97938 17.3696 2.60692 16.7067C3.40489 15.8773 4.32215 15.1757 5.32738 14.6258C4.94162 14.3236 4.54842 14.0314 4.14817 13.7493L4.10679 13.719C3.67332 13.413 3.24681 13.0971 2.82759 12.7713C1.96559 12.0886 1.06337 11.2494 0.517436 10.1501C-0.057229 8.99465 -0.188253 7.65952 0.302511 6.12132C0.816262 4.50842 2.04375 3.24565 3.46432 2.32016C4.89638 1.38883 6.62498 0.731772 8.33748 0.371146C10.0454 0.00935341 11.8085 -0.0723416 13.3164 0.207756ZM6.82266 16.4768C5.86858 16.9334 5.00225 17.559 4.26425 18.3242C3.77004 18.8459 3.44248 19.3536 3.29882 19.7936C3.16779 20.1974 3.19767 20.509 3.36777 20.7984C3.46317 20.9583 3.60913 21.0715 3.98267 21.033C4.40217 20.991 4.97799 20.7447 5.54001 20.2627C6.61463 19.3431 7.26515 17.9169 6.82266 16.4768ZM10.3741 7.56498H10.3764H10.3741Z" fill="white"/>
</svg>
