<svg width="20" height="14" viewBox="0 0 20 14" fill="none" xmlns="http://www.w3.org/2000/svg">
<path fill-rule="evenodd" clip-rule="evenodd" d="M13.6364 2.82569C13.6364 2.08687 13.349 1.37832 12.8376 0.855895C12.3261 0.333472 11.6324 0.039978 10.9091 0.039978H2.72727C2.00396 0.039978 1.31026 0.333472 0.7988 0.855895C0.287337 1.37832 0 2.08687 0 2.82569V10.2543C0 10.9931 0.287337 11.7016 0.7988 12.2241C1.31026 12.7465 2.00396 13.04 2.72727 13.04H10.9091C11.6324 13.04 12.3261 12.7465 12.8376 12.2241C13.349 11.7016 13.6364 10.9931 13.6364 10.2543V8.34419L18.5627 11.9378C18.6986 12.0368 18.8586 12.0958 19.0251 12.1081C19.1916 12.1205 19.3582 12.0858 19.5066 12.0078C19.6551 11.9298 19.7797 11.8116 19.8667 11.6661C19.9537 11.5205 19.9998 11.3534 20 11.1828V1.89712C20 1.72652 19.954 1.55922 19.8671 1.41357C19.7801 1.26792 19.6555 1.14955 19.507 1.07146C19.3586 0.993367 19.1919 0.958568 19.0253 0.970882C18.8587 0.983196 18.6987 1.04215 18.5627 1.14126L13.6364 4.73483V2.82569ZM14.2909 6.53998L18.1818 3.70133V9.37862L14.2909 6.53998ZM10.9091 1.89712C11.1502 1.89712 11.3814 1.99495 11.5519 2.16909C11.7224 2.34323 11.8182 2.57942 11.8182 2.82569V10.2543C11.8182 10.5005 11.7224 10.7367 11.5519 10.9109C11.3814 11.085 11.1502 11.1828 10.9091 11.1828H2.72727C2.48617 11.1828 2.25494 11.085 2.08445 10.9109C1.91396 10.7367 1.81818 10.5005 1.81818 10.2543V2.82569C1.81818 2.57942 1.91396 2.34323 2.08445 2.16909C2.25494 1.99495 2.48617 1.89712 2.72727 1.89712H10.9091Z" fill="white"/>
</svg>
