<svg width="21" height="21" viewBox="0 0 21 21" fill="none" xmlns="http://www.w3.org/2000/svg">
<path fill-rule="evenodd" clip-rule="evenodd" d="M10.3334 20.7068C16.0403 20.7068 20.6667 16.0804 20.6667 10.3734C20.6667 4.66645 16.0403 0.0400391 10.3334 0.0400391C4.62641 0.0400391 0 4.66645 0 10.3734C0 16.0804 4.62641 20.7068 10.3334 20.7068ZM9.21075 11.6916C9.12467 12.2706 9.61578 12.7484 10.2012 12.7484H10.6871C10.9734 12.7484 11.2105 12.5259 11.2285 12.2401C11.2874 11.6956 11.5202 11.2206 11.927 10.8151L12.5772 10.1734C13.0857 9.6623 13.4416 9.19841 13.645 8.78174C13.8484 8.35952 13.9501 7.91229 13.9501 7.44007C13.9501 6.40118 13.637 5.59839 13.0108 5.03172C12.3846 4.4595 11.5041 4.17339 10.3695 4.17339C9.24556 4.17339 8.35711 4.47339 7.70415 5.07339C7.31693 5.43216 7.04355 5.87335 6.88404 6.39698C6.69405 7.02063 7.25549 7.56507 7.90744 7.56507C8.45933 7.56507 8.87074 7.11554 9.25463 6.69606C9.30824 6.63748 9.36131 6.57949 9.41415 6.5234C9.65499 6.26784 9.97344 6.14006 10.3695 6.14006C11.2044 6.14006 11.6219 6.60951 11.6219 7.5484C11.6219 7.85951 11.5416 8.15674 11.381 8.44007C11.2205 8.71785 10.8967 9.08174 10.4096 9.53174C9.92795 9.97619 9.59612 10.429 9.41415 10.8901C9.32404 11.1184 9.25624 11.3856 9.21075 11.6916ZM9.26964 14.3901C9.0288 14.629 8.90838 14.9345 8.90838 15.3068C8.90838 15.6734 9.02612 15.9762 9.26162 16.2151C9.50246 16.454 9.81823 16.5734 10.2089 16.5734C10.5996 16.5734 10.9127 16.454 11.1482 16.2151C11.3891 15.9762 11.5095 15.6734 11.5095 15.3068C11.5095 14.9345 11.3864 14.629 11.1402 14.3901C10.8994 14.1456 10.5889 14.0234 10.2089 14.0234C9.82894 14.0234 9.51584 14.1456 9.26964 14.3901Z" fill="white"/>
</svg>
