<svg width="20" height="21" viewBox="0 0 20 21" fill="none" xmlns="http://www.w3.org/2000/svg">
<path fill-rule="evenodd" clip-rule="evenodd" d="M8.12507 1.29005C8.12507 0.599688 8.68472 0.0400391 9.37508 0.0400391H10.6251C11.3154 0.0400391 11.8751 0.599688 11.8751 1.29005L12.0252 2.34048C12.1595 3.281 13.2526 3.73375 14.0126 3.16371L14.8615 2.52705C15.3496 2.03889 16.1411 2.03889 16.6293 2.52705L17.5132 3.41094C18.0013 3.8991 18.0013 4.69057 17.5132 5.17872L16.8765 6.02759C16.3065 6.78765 16.7592 7.88068 17.6997 8.01505L18.7502 8.1651C19.4405 8.1651 20.0002 8.72475 20.0002 9.41512V10.6651C20.0002 11.3555 19.4405 11.9151 18.7502 11.9151L17.6997 12.0652C16.7592 12.1996 16.3065 13.2926 16.8765 14.0526L17.5132 14.9015C18.0013 15.3897 18.0013 16.1811 17.5132 16.6693L16.6293 17.5532C16.1411 18.0414 15.3496 18.0414 14.8615 17.5532L14.0126 16.9165C13.2525 16.3465 12.1595 16.7992 12.0252 17.7398L11.8751 18.7902C11.8751 19.4806 11.3154 20.0402 10.6251 20.0402H9.37508C8.68472 20.0402 8.12507 19.4806 8.12507 18.7902L7.97501 17.7398C7.84065 16.7992 6.74761 16.3465 5.98755 16.9165L5.13868 17.5532C4.65052 18.0414 3.85906 18.0414 3.3709 17.5532L2.48701 16.6693C1.99885 16.1811 1.99885 15.3897 2.48701 14.9015L3.12367 14.0526C3.69371 13.2926 3.24097 12.1996 2.30044 12.0652L1.25001 11.9151C0.559649 11.9151 0 11.3555 0 10.6651V9.41511C0 8.72475 0.559649 8.1651 1.25001 8.1651L2.30043 8.01504C3.24096 7.88068 3.69371 6.78765 3.12366 6.02759L2.48701 5.17872C1.99885 4.69057 1.99885 3.8991 2.48701 3.41094L3.3709 2.52705C3.85906 2.03889 4.65052 2.03889 5.13868 2.52705L5.98755 3.1637C6.74761 3.73375 7.84064 3.281 7.97501 2.34048L8.12507 1.29005ZM10.0001 14.0402C12.2092 14.0402 14.0001 12.2493 14.0001 10.0401C14.0001 7.83096 12.2092 6.04009 10.0001 6.04009C7.79093 6.04009 6.00005 7.83096 6.00005 10.0401C6.00005 12.2493 7.79093 14.0402 10.0001 14.0402Z" fill="white"/>
</svg>
