<svg width="18" height="22" viewBox="0 0 18 22" fill="none" xmlns="http://www.w3.org/2000/svg">
<path d="M18 8.35721C18 3.76368 13.9706 0.039978 8.99999 0.039978C4.02939 0.039978 0 3.76368 0 8.35721C0 12.9505 4.02939 16.6744 8.99999 16.6744C10.4412 16.6764 11.8616 16.3571 13.1408 15.7437C13.8144 16.8059 14.6105 18.693 13.8945 21.04C13.8945 21.04 16.7371 17.9879 16.1113 13.455C17.3383 11.9979 18.0031 10.2036 18 8.35721ZM8.33885 7.59458C8.33885 8.20165 8.28142 8.67799 8.16685 9.02362C8.05199 9.36898 7.83811 9.67984 7.52579 9.95644C7.21346 10.2328 6.81966 10.45 6.3441 10.608L5.90362 9.74886C6.3523 9.61082 6.67397 9.41813 6.86889 9.17159C7.06409 8.92479 7.16678 8.59669 7.17725 8.18675H6.08751V6.1062H8.33885V7.59458ZM12.0964 7.59458C12.0964 8.19694 12.0389 8.67198 11.9244 9.01996C11.8095 9.36794 11.5973 9.6801 11.2873 9.9567C10.9775 10.233 10.5823 10.4503 10.1016 10.6082L9.66086 9.74912C10.1095 9.61108 10.4315 9.41839 10.6264 9.17185C10.8213 8.92532 10.9243 8.59695 10.9348 8.18701H9.84503V6.10646H12.0964V7.59458Z" fill="white"/>
</svg>
