<svg width="18" height="21" viewBox="0 0 18 21" fill="none" xmlns="http://www.w3.org/2000/svg">
<path fill-rule="evenodd" clip-rule="evenodd" d="M15.1875 11.29C15.1875 11.1242 15.1282 10.9652 15.0227 10.848C14.9173 10.7308 14.7742 10.665 14.625 10.665H3.375C3.22582 10.665 3.08274 10.7308 2.97725 10.848C2.87176 10.9652 2.8125 11.1242 2.8125 11.29V18.165C2.81235 18.4113 2.8559 18.6551 2.94065 18.8827C3.0254 19.1103 3.1497 19.317 3.30643 19.4912C3.46316 19.6653 3.64924 19.8034 3.85405 19.8976C4.05885 19.9918 4.27835 20.0401 4.5 20.04H13.5C13.9478 20.04 14.3775 19.8419 14.6925 19.49C15.0092 19.1394 15.1875 18.6619 15.1875 18.165V11.29ZM15.1875 1.91498C15.1875 1.41748 15.0098 0.940603 14.6931 0.589353C14.5365 0.41512 14.3505 0.276914 14.1458 0.182644C13.9411 0.088375 13.7216 0.0398945 13.5 0.0399781H4.5C4.05225 0.0399781 3.62306 0.237478 3.30694 0.589353C3.15013 0.763341 3.02574 0.969984 2.9409 1.19745C2.85606 1.42492 2.81242 1.66875 2.8125 1.91498V7.53998C2.8125 8.03748 2.99025 8.51435 3.30694 8.8656C3.46353 9.03984 3.6495 9.17804 3.85423 9.27231C4.05895 9.36658 4.27839 9.41506 4.5 9.41498H13.5C13.9478 9.41498 14.3769 9.21748 14.6931 8.8656C14.8499 8.69162 14.9743 8.48497 15.0591 8.2575C15.1439 8.03003 15.1876 7.78621 15.1875 7.53998V1.91498ZM6.75 2.53998C6.30999 2.5526 5.89182 2.75569 5.58463 3.10594C5.27743 3.45619 5.10551 3.92592 5.10551 4.41498C5.10551 4.90404 5.27743 5.37376 5.58463 5.72402C5.89182 6.07427 6.30999 6.27735 6.75 6.28998C7.19001 6.27735 7.60818 6.07427 7.91537 5.72402C8.22257 5.37376 8.39449 4.90404 8.39449 4.41498C8.39449 3.92592 8.22257 3.45619 7.91537 3.10594C7.60818 2.75569 7.19001 2.5526 6.75 2.53998ZM11.25 2.53998C10.81 2.5526 10.3918 2.75569 10.0846 3.10594C9.77743 3.45619 9.60551 3.92592 9.60551 4.41498C9.60551 4.90404 9.77743 5.37376 10.0846 5.72402C10.3918 6.07427 10.81 6.27735 11.25 6.28998C11.69 6.27735 12.1082 6.07427 12.4154 5.72402C12.7226 5.37376 12.8945 4.90404 12.8945 4.41498C12.8945 3.92592 12.7226 3.45619 12.4154 3.10594C12.1082 2.75569 11.69 2.5526 11.25 2.53998ZM16.2163 10.665H16.3125C16.7603 10.665 17.1894 10.8625 17.5056 11.2144C17.8223 11.5656 18 12.0425 18 12.54V16.29C18 16.7875 17.8223 17.2644 17.5056 17.6156C17.349 17.7898 17.163 17.928 16.9583 18.0223C16.7536 18.1166 16.5341 18.1651 16.3125 18.165V11.29C16.3125 11.0706 16.2787 10.8606 16.2163 10.665ZM1.78369 10.665H1.6875C1.23975 10.665 0.810563 10.8625 0.494438 11.2144C0.337628 11.3883 0.213242 11.595 0.1284 11.8225C0.0435573 12.0499 -7.5131e-05 12.2937 9.71115e-08 12.54V16.29C9.71115e-08 16.7875 0.17775 17.2644 0.494438 17.6156C0.651026 17.7898 0.837005 17.928 1.04173 18.0223C1.24645 18.1166 1.46589 18.1651 1.6875 18.165V11.29C1.6875 11.0706 1.72125 10.8606 1.78369 10.665Z" fill="white"/>
</svg>
