<svg width="10" height="21" viewBox="0 0 10 21" fill="none" xmlns="http://www.w3.org/2000/svg">
<path d="M9.75374 5.04805C9.83177 4.97818 9.89371 4.89504 9.93597 4.80344C9.97824 4.71184 10 4.6136 10 4.51437C10 4.41514 9.97824 4.31689 9.93597 4.22529C9.89371 4.1337 9.83177 4.05056 9.75374 3.98068L5.5911 0.222342C5.5137 0.151889 5.42162 0.0959695 5.32017 0.0578083C5.21872 0.0196471 5.1099 -2.13753e-07 5 -2.18557e-07C4.8901 -2.23361e-07 4.78128 0.0196471 4.67983 0.0578083C4.57838 0.0959695 4.4863 0.151889 4.40891 0.222342L0.246262 3.98068C0.168231 4.05056 0.106294 4.1337 0.0640276 4.22529C0.0217608 4.31689 7.60682e-07 4.41514 7.56345e-07 4.51437C7.52008e-07 4.6136 0.0217607 4.71184 0.0640276 4.80344C0.106294 4.89504 0.168231 4.97817 0.246262 5.04805C0.323657 5.1185 0.415734 5.17442 0.517185 5.21259C0.618636 5.25075 0.727453 5.27039 0.837356 5.27039C0.94726 5.27039 1.05608 5.25075 1.15753 5.21259C1.25898 5.17442 1.35106 5.1185 1.42845 5.04805L5 1.81588L8.57155 5.04805C8.64894 5.1185 8.74102 5.17442 8.84247 5.21259C8.94392 5.25075 9.05274 5.27039 9.16264 5.27039C9.27255 5.27039 9.38136 5.25075 9.48281 5.21259C9.58427 5.17442 9.67634 5.1185 9.75374 5.04805ZM5.5911 20.7777L9.75374 17.0193C9.83136 16.9492 9.89294 16.866 9.93495 16.7745C9.97696 16.6829 9.99858 16.5847 9.99858 16.4856C9.99858 16.2855 9.91051 16.0935 9.75374 15.9519C9.67612 15.8819 9.58396 15.8263 9.48254 15.7883C9.38112 15.7504 9.27242 15.7309 9.16264 15.7309C8.94094 15.7309 8.72832 15.8104 8.57155 15.9519L5 19.1841L1.42845 15.9519C1.35106 15.8815 1.25898 15.8256 1.15753 15.7874C1.05608 15.7493 0.947259 15.7296 0.837356 15.7296C0.727453 15.7296 0.618635 15.7493 0.517185 15.7874C0.415734 15.8256 0.323656 15.8815 0.246262 15.9519C0.16823 16.0218 0.106294 16.105 0.0640271 16.1966C0.0217602 16.2882 2.37402e-07 16.3864 2.33065e-07 16.4856C2.28727e-07 16.5849 0.0217602 16.6831 0.0640271 16.7747C0.106294 16.8663 0.16823 16.9494 0.246262 17.0193L4.4089 20.7777C4.4863 20.8481 4.57838 20.904 4.67983 20.9422C4.78128 20.9804 4.8901 21 5 21C5.1099 21 5.21872 20.9804 5.32017 20.9422C5.42162 20.904 5.5137 20.8481 5.5911 20.7777Z" fill="#919191"/>
</svg>
