<svg width="18" height="17" viewBox="0 0 18 17" fill="none" xmlns="http://www.w3.org/2000/svg">
<path fill-rule="evenodd" clip-rule="evenodd" d="M16.255 1.32527C16.0041 1.07426 15.7061 0.875135 15.3782 0.739283C15.0502 0.603431 14.6987 0.533508 14.3438 0.533508C13.9888 0.533508 13.6373 0.603431 13.3094 0.739283C12.9815 0.875135 12.6835 1.07426 12.4325 1.32527L11.0514 2.70635C10.5482 2.46463 9.98238 2.38515 9.43206 2.47892C8.88174 2.57268 8.37413 2.83505 7.97937 3.22978L7.33703 3.87302C7.16964 4.04034 7.03685 4.23901 6.94626 4.45766C6.85566 4.67631 6.80903 4.91067 6.80903 5.14735C6.80903 5.38402 6.85566 5.61838 6.94626 5.83703C7.03685 6.05569 7.16964 6.25435 7.33703 6.42167L1.49378 12.264C1.24285 12.5151 1.04384 12.8132 0.908124 13.1412C0.772405 13.4692 0.702633 13.8207 0.702793 14.1757V15.7973C0.702793 16.0841 0.816693 16.359 1.01943 16.5618C1.22218 16.7645 1.49715 16.8784 1.78387 16.8784H3.4055C4.12206 16.8778 4.80904 16.5926 5.31541 16.0856L11.1586 10.2442C11.326 10.4116 11.5246 10.5444 11.7433 10.635C11.9619 10.7256 12.1963 10.7722 12.433 10.7722C12.6697 10.7722 12.904 10.7256 13.1227 10.635C13.3413 10.5444 13.54 10.4116 13.7073 10.2442L14.3505 9.60005C14.7453 9.20529 15.0076 8.69767 15.1014 8.14735C15.1952 7.59703 15.1157 7.03118 14.874 6.52798L16.255 5.1478C16.5061 4.89682 16.7052 4.59886 16.841 4.27092C16.9769 3.94298 17.0468 3.5915 17.0468 3.23653C17.0468 2.88157 16.9769 2.53009 16.841 2.20215C16.7052 1.87421 16.5061 1.57625 16.255 1.32527ZM2.76856 13.5379L8.6109 7.69554L9.88478 8.96942L4.04243 14.8127C3.87352 14.9816 3.64441 15.0766 3.4055 15.0766H2.5046V14.1757C2.50465 13.9368 2.5996 13.7077 2.76856 13.5388V13.5379Z" fill="#E8E8E8"/>
</svg>
