<svg width="10" height="18" viewBox="0 0 10 18" fill="none" xmlns="http://www.w3.org/2000/svg">
<path d="M9.57813 0.443269C9.44555 0.302812 9.2878 0.191329 9.11401 0.115249C8.94021 0.0391699 8.7538 0 8.56552 0C8.37724 0 8.19083 0.0391699 8.01703 0.115249C7.84324 0.191329 7.6855 0.302812 7.55291 0.443269L0.42187 7.93603C0.288194 8.07534 0.182092 8.24108 0.109685 8.42369C0.0372786 8.6063 0 8.80217 0 9C0 9.19783 0.0372786 9.3937 0.109685 9.57631C0.182092 9.75892 0.288194 9.92466 0.42187 10.064L7.55291 17.5567C7.6855 17.6972 7.84324 17.8087 8.01703 17.8848C8.19083 17.9608 8.37724 18 8.56552 18C8.7538 18 8.94021 17.9608 9.11401 17.8848C9.2878 17.8087 9.44555 17.6972 9.57813 17.5567C9.71181 17.4174 9.81791 17.2517 9.89031 17.0691C9.96272 16.8865 10 16.6906 10 16.4928C10 16.2949 9.96272 16.0991 9.89031 15.9165C9.81791 15.7338 9.71181 15.5681 9.57813 15.4288L3.44543 9L9.57813 2.57121C9.71181 2.4319 9.81791 2.26616 9.89031 2.08355C9.96272 1.90094 10 1.70507 10 1.50724C10 1.30941 9.96272 1.11355 9.89031 0.930933C9.81791 0.74832 9.71181 0.582579 9.57813 0.443269Z" fill="white"/>
</svg>
