<svg width="23" height="23" viewBox="0 0 23 23" fill="none" xmlns="http://www.w3.org/2000/svg">
<mask id="path-1-inside-1_2350_2731" fill="white">
<path d="M14.9369 1.56315C14.9768 1.5232 15.0189 1.48636 15.0659 1.45508C15.5186 1.15413 18.1324 -0.367632 20.9766 2.47661C23.8208 5.32085 22.2991 7.93458 21.9981 8.38731C21.9669 8.43436 21.93 8.47642 21.8901 8.51637L9.94207 20.4644C9.79154 20.6149 9.60449 20.7237 9.39924 20.7803L2.20266 22.7619C1.28312 23.0151 0.438075 22.1701 0.691284 21.2506L2.67295 14.054C2.72947 13.8487 2.83832 13.6617 2.98886 13.5111L14.9369 1.56315Z"/>
</mask>
<path d="M12.8997 5.51336L18.1146 10.7283L19.8529 8.98997L14.638 3.77506L12.8997 5.51336ZM0.691284 21.2506L-1.67883 20.5979L0.691284 21.2506ZM2.67295 14.054L0.302833 13.4013L2.67295 14.054ZM9.39924 20.7803L8.7466 18.4101L9.39924 20.7803ZM21.9981 8.38731L24.0454 9.74824L21.9981 8.38731ZM20.1518 6.77806L8.20377 18.7261L11.6804 22.2027L23.6284 10.2547L20.1518 6.77806ZM4.72716 15.2494L16.6752 3.30145L13.1985 -0.175155L1.25055 11.7728L4.72716 15.2494ZM8.7466 18.4101L1.55002 20.3918L2.85531 25.1321L10.0519 23.1504L8.7466 18.4101ZM3.0614 21.9032L5.04307 14.7066L0.302833 13.4013L-1.67883 20.5979L3.0614 21.9032ZM16.4268 3.50234C16.4658 3.47644 16.8078 3.26754 17.2685 3.24051C17.6111 3.2204 18.2968 3.2734 19.2383 4.21491L22.7149 0.738304C20.8122 -1.16443 18.7689 -1.77267 16.9804 -1.66771C15.31 -1.56969 14.1187 -0.86723 13.705 -0.59218L16.4268 3.50234ZM19.2383 4.21491C20.1798 5.15642 20.2328 5.84212 20.2127 6.18476C20.1857 6.64543 19.9768 6.98742 19.9509 7.02639L24.0454 9.74824C24.3204 9.33448 25.0229 8.14323 25.1209 6.47279C25.2259 4.68432 24.6176 2.64103 22.7149 0.738304L19.2383 4.21491ZM1.55002 20.3918C2.46957 20.1386 3.31461 20.9836 3.0614 21.9032L-1.67883 20.5979C-2.43846 23.3566 0.096669 25.8917 2.85531 25.1321L1.55002 20.3918ZM1.25055 11.7728C0.798953 12.2244 0.472384 12.7856 0.302833 13.4013L5.04307 14.7066C4.98655 14.9119 4.8777 15.0989 4.72716 15.2494L1.25055 11.7728ZM8.20377 18.7261C8.3543 18.5755 8.54135 18.4667 8.7466 18.4101L10.0519 23.1504C10.6676 22.9808 11.2288 22.6543 11.6804 22.2027L8.20377 18.7261ZM23.6284 10.2547C23.7415 10.1415 23.8961 9.9729 24.0454 9.74824L19.9509 7.02639C20.0377 6.89583 20.1185 6.8113 20.1518 6.77806L23.6284 10.2547ZM16.6752 3.30145C16.6419 3.3347 16.5574 3.41555 16.4268 3.50234L13.705 -0.59218C13.4803 -0.44284 13.3117 -0.288292 13.1985 -0.175155L16.6752 3.30145Z" fill="#EAEAEA" mask="url(#path-1-inside-1_2350_2731)"/>
</svg>
