<svg width="31" height="24" viewBox="0 0 31 24" fill="none" xmlns="http://www.w3.org/2000/svg">
<path fill-rule="evenodd" clip-rule="evenodd" d="M9.66693 9.08402C9.66693 7.53685 10.2815 6.05304 11.3755 4.95903C12.4694 3.86501 13.9532 3.2504 15.5003 3.2504C17.0474 3.2504 18.5311 3.86501 19.6251 4.95903C20.719 6.05304 21.3336 7.53685 21.3336 9.08402V10.5424H22.7919C23.4622 10.5424 24.1259 10.6745 24.7452 10.931C25.3645 11.1875 25.9272 11.5635 26.4011 12.0375C26.8751 12.5115 27.2511 13.0742 27.5076 13.6935C27.7641 14.3128 27.8961 14.9765 27.8961 15.6468C27.8961 16.3172 27.7641 16.9809 27.5076 17.6002C27.2511 18.2195 26.8751 18.7822 26.4011 19.2562C25.9272 19.7302 25.3645 20.1062 24.7452 20.3627C24.1259 20.6192 23.4622 20.7513 22.7919 20.7513H22.6461C22.2593 20.7513 21.8884 20.9049 21.6149 21.1784C21.3414 21.4519 21.1878 21.8229 21.1878 22.2097C21.1878 22.5965 21.3414 22.9674 21.6149 23.2409C21.8884 23.5144 22.2593 23.6681 22.6461 23.6681H22.7919C24.8032 23.6706 26.7419 22.9175 28.2241 21.5579C29.7062 20.1983 30.6235 18.3315 30.7941 16.3274C30.9647 14.3233 30.3763 12.3283 29.1454 10.7376C27.9144 9.14701 26.1309 8.07689 24.1482 7.73937C23.8279 5.67556 22.7801 3.79434 21.1942 2.43549C19.6083 1.07665 17.5887 0.329773 15.5003 0.329773C13.4118 0.329773 11.3923 1.07665 9.80634 2.43549C8.2204 3.79434 7.17265 5.67556 6.85235 7.73937C4.87614 8.08439 3.10085 9.15722 1.87642 10.7464C0.651985 12.3356 0.0672401 14.3258 0.237442 16.3247C0.407645 18.3237 1.32045 20.1864 2.79592 21.5457C4.2714 22.9049 6.20251 23.6621 8.2086 23.6681H8.35443C8.74121 23.6681 9.11214 23.5144 9.38563 23.2409C9.65912 22.9674 9.81277 22.5965 9.81277 22.2097C9.81277 21.8229 9.65912 21.4519 9.38563 21.1784C9.11214 20.9049 8.74121 20.7513 8.35443 20.7513H8.2086C7.53831 20.7513 6.87458 20.6192 6.25532 20.3627C5.63605 20.1062 5.07337 19.7302 4.59941 19.2562C4.12544 18.7822 3.74947 18.2195 3.49296 17.6002C3.23645 16.9809 3.10443 16.3172 3.10443 15.6468C3.10443 14.9765 3.23645 14.3128 3.49296 13.6935C3.74947 13.0742 4.12544 12.5115 4.59941 12.0375C5.07337 11.5635 5.63605 11.1875 6.25532 10.931C6.87458 10.6745 7.53831 10.5424 8.2086 10.5424H9.66693V9.08402ZM16.9586 10.5424C16.9586 10.1556 16.805 9.78468 16.5315 9.51118C16.258 9.23767 15.887 9.08402 15.5003 9.08402C15.1135 9.08402 14.7426 9.23767 14.4691 9.51118C14.1956 9.78468 14.0419 10.1556 14.0419 10.5424V18.6891L12.1563 16.8034C11.8813 16.5377 11.5129 16.3907 11.1305 16.394C10.7481 16.3973 10.3824 16.5507 10.112 16.8211C9.8416 17.0915 9.68823 17.4573 9.68491 17.8397C9.68159 18.2221 9.82858 18.5905 10.0942 18.8655L14.4692 23.2408C14.7427 23.5142 15.1136 23.6678 15.5003 23.6678C15.887 23.6678 16.2578 23.5142 16.5313 23.2408L20.9063 18.8655C21.172 18.5905 21.3189 18.2221 21.3156 17.8397C21.3123 17.4573 21.1589 17.0915 20.8885 16.8211C20.6182 16.5507 20.2524 16.3973 19.87 16.394C19.4876 16.3907 19.1193 16.5377 18.8442 16.8034L16.9586 18.6891V10.5424Z" fill="white"/>
</svg>
