<svg width="16" height="8" viewBox="0 0 16 8" fill="none" xmlns="http://www.w3.org/2000/svg">
<path d="M1.21162 0.505539C1.09931 0.608292 1.01016 0.73054 0.949331 0.865233C0.888498 0.999925 0.857177 1.1444 0.857177 1.29031C0.857177 1.43622 0.888498 1.58069 0.949331 1.71539C1.01016 1.85008 1.09931 1.97233 1.21162 2.07508L7.20285 7.60164C7.31424 7.70524 7.44677 7.78747 7.59279 7.84358C7.73881 7.8997 7.89542 7.92859 8.05361 7.92859C8.21179 7.92859 8.36841 7.8997 8.51442 7.84358C8.66044 7.78747 8.79297 7.70524 8.90436 7.60164L14.8956 2.07508C15.0079 1.97233 15.097 1.85008 15.1579 1.71539C15.2187 1.58069 15.25 1.43622 15.25 1.29031C15.25 1.1444 15.2187 0.999925 15.1579 0.865232C15.097 0.73054 15.0079 0.608291 14.8956 0.505538C14.7842 0.401939 14.6517 0.319711 14.5057 0.263595C14.3596 0.20748 14.203 0.178589 14.0448 0.178589C13.8867 0.178589 13.73 0.20748 13.584 0.263596C13.438 0.319711 13.3055 0.401939 13.1941 0.505538L8.05361 5.25838L2.91313 0.505539C2.80173 0.40194 2.66921 0.319711 2.52319 0.263596C2.37717 0.20748 2.22055 0.178589 2.06237 0.178589C1.90419 0.178589 1.74757 0.20748 1.60155 0.263596C1.45554 0.319711 1.32301 0.40194 1.21162 0.505539Z" fill="white"/>
</svg>
