<svg width="33" height="33" viewBox="0 0 33 33" fill="none" xmlns="http://www.w3.org/2000/svg">
<path fill-rule="evenodd" clip-rule="evenodd" d="M16.5 32.75C25.4746 32.75 32.75 25.4746 32.75 16.5C32.75 7.52537 25.4746 0.25 16.5 0.25C7.52537 0.25 0.25 7.52537 0.25 16.5C0.25 25.4746 7.52537 32.75 16.5 32.75ZM16.5 14.875C19.1924 14.875 21.375 12.6924 21.375 10C21.375 7.30761 19.1924 5.125 16.5 5.125C13.8076 5.125 11.625 7.30761 11.625 10C11.625 12.6924 13.8076 14.875 16.5 14.875ZM6.75 23C7.96875 19.3438 14.0625 18.125 16.5 18.125C18.9375 18.125 25.0313 19.3438 26.25 23C25.0313 26.6563 20.1563 27.875 16.5 27.875C12.8438 27.875 7.96875 26.6563 6.75 23Z" fill="white"/>
</svg>
